# xmcd CD database file
#
# Track frame offsets:
#	150
#	15618
#	32246
#	47567
#	63470
#	82281
#	101578
#	117542
#	136124
#	152484
#	166330
#	181904
#
# Disc length: 2684 seconds
#
# Revision: 0
# Processed by: cddbd v1.5.2PL0 Copyright (c) Steve Scherf et al.
# Submitted via: CDex 1.70beta2
#
DISCID=9a0a7a0c
DTITLE=Trisha Yearwood - Inside Out
DYEAR=2001
DGENRE=Country
TTITLE0=Love Alone
TTITLE1=I Would've Loved You Anyway
TTITLE2=For A While
TTITLE3=Seven Year Ache
TTITLE4=I Don't Paint Myself Into Corners
TTITLE5=Harmeless Heart
TTITLE6=Inside Out
TTITLE7=Love Let Go
TTITLE8=Melancholy Blue
TTITLE9=Second Chance
TTITLE10=Love Me Or Leave Me Alone
TTITLE11=When We Were Still In Love
EXTD=YEAR: 2001
EXTT0=
EXTT1=
EXTT2=
EXTT3=
EXTT4=
EXTT5=
EXTT6=
EXTT7=
EXTT8=
EXTT9=
EXTT10=
EXTT11=
PLAYORDER=
